<mxfile host="app.diagrams.net" agent="Mozilla/5.0 (Macintosh; Intel Mac OS X 10_15_7) AppleWebKit/537.36 (KHTML, like Gecko) Chrome/112.0.0.0 Safari/537.36" version="24.7.10">
  <diagram name="Page-1" id="SAhULCFmGrawdrRfO05f">
    <mxGraphModel dx="276" dy="122" grid="1" gridSize="10" guides="1" tooltips="1" connect="1" arrows="1" fold="1" page="1" pageScale="1" pageWidth="827" pageHeight="1169" math="0" shadow="0">
      <root>
        <mxCell id="0" />
        <mxCell id="1" parent="0" />
        <mxCell id="09kZFXPRxGzwBJFV6vJo-1" value="Vehicle" style="swimlane;fontStyle=1;align=center;verticalAlign=top;childLayout=stackLayout;horizontal=1;startSize=26;horizontalStack=0;resizeParent=1;resizeParentMax=0;resizeLast=0;collapsible=1;marginBottom=0;whiteSpace=wrap;html=1;" parent="1" vertex="1">
          <mxGeometry x="300" y="110" width="180" height="208" as="geometry" />
        </mxCell>
        <mxCell id="09kZFXPRxGzwBJFV6vJo-2" value="- numberPlate : std:string&lt;div&gt;- payment : Payment&lt;/div&gt;&lt;div&gt;- parkedTime: time&lt;/div&gt;" style="text;strokeColor=none;fillColor=none;align=left;verticalAlign=top;spacingLeft=4;spacingRight=4;overflow=hidden;rotatable=0;points=[[0,0.5],[1,0.5]];portConstraint=eastwest;whiteSpace=wrap;html=1;" parent="09kZFXPRxGzwBJFV6vJo-1" vertex="1">
          <mxGeometry y="26" width="180" height="64" as="geometry" />
        </mxCell>
        <mxCell id="09kZFXPRxGzwBJFV6vJo-3" value="" style="line;strokeWidth=1;fillColor=none;align=left;verticalAlign=middle;spacingTop=-1;spacingLeft=3;spacingRight=3;rotatable=0;labelPosition=right;points=[];portConstraint=eastwest;strokeColor=inherit;" parent="09kZFXPRxGzwBJFV6vJo-1" vertex="1">
          <mxGeometry y="90" width="180" height="28" as="geometry" />
        </mxCell>
        <mxCell id="09kZFXPRxGzwBJFV6vJo-4" value="+ GetType(): std::string&lt;div&gt;+ CalculateCost(): double&lt;/div&gt;&lt;div&gt;+ SetParkedTime(): time&lt;/div&gt;&lt;div&gt;+ GetParkedTime(): time&lt;/div&gt;&lt;div&gt;+ GetNumberPlate(): std::string&lt;/div&gt;" style="text;strokeColor=none;fillColor=none;align=left;verticalAlign=top;spacingLeft=4;spacingRight=4;overflow=hidden;rotatable=0;points=[[0,0.5],[1,0.5]];portConstraint=eastwest;whiteSpace=wrap;html=1;" parent="09kZFXPRxGzwBJFV6vJo-1" vertex="1">
          <mxGeometry y="118" width="180" height="90" as="geometry" />
        </mxCell>
        <mxCell id="09kZFXPRxGzwBJFV6vJo-11" value="&amp;lt;&lt;span class=&quot;xml&quot;&gt;&amp;lt;&lt;span class=&quot;hljs-name&quot;&gt;enumeration&lt;/span&gt;&amp;gt;&lt;/span&gt;&amp;gt;&lt;div&gt;VehicleType&amp;nbsp;&lt;/div&gt;" style="swimlane;fontStyle=0;childLayout=stackLayout;horizontal=1;startSize=40;fillColor=none;horizontalStack=0;resizeParent=1;resizeParentMax=0;resizeLast=0;collapsible=1;marginBottom=0;whiteSpace=wrap;html=1;" parent="1" vertex="1">
          <mxGeometry x="60" y="130" width="140" height="98" as="geometry">
            <mxRectangle x="60" y="159" width="140" height="40" as="alternateBounds" />
          </mxGeometry>
        </mxCell>
        <mxCell id="09kZFXPRxGzwBJFV6vJo-12" value="+ Truck" style="text;strokeColor=none;fillColor=none;align=left;verticalAlign=top;spacingLeft=4;spacingRight=4;overflow=hidden;rotatable=0;points=[[0,0.5],[1,0.5]];portConstraint=eastwest;whiteSpace=wrap;html=1;" parent="09kZFXPRxGzwBJFV6vJo-11" vertex="1">
          <mxGeometry y="40" width="140" height="16" as="geometry" />
        </mxCell>
        <mxCell id="09kZFXPRxGzwBJFV6vJo-13" value="+ Car" style="text;strokeColor=none;fillColor=none;align=left;verticalAlign=top;spacingLeft=4;spacingRight=4;overflow=hidden;rotatable=0;points=[[0,0.5],[1,0.5]];portConstraint=eastwest;whiteSpace=wrap;html=1;" parent="09kZFXPRxGzwBJFV6vJo-11" vertex="1">
          <mxGeometry y="56" width="140" height="18" as="geometry" />
        </mxCell>
        <mxCell id="09kZFXPRxGzwBJFV6vJo-14" value="+ Bike" style="text;strokeColor=none;fillColor=none;align=left;verticalAlign=top;spacingLeft=4;spacingRight=4;overflow=hidden;rotatable=0;points=[[0,0.5],[1,0.5]];portConstraint=eastwest;whiteSpace=wrap;html=1;" parent="09kZFXPRxGzwBJFV6vJo-11" vertex="1">
          <mxGeometry y="74" width="140" height="24" as="geometry" />
        </mxCell>
        <mxCell id="09kZFXPRxGzwBJFV6vJo-16" value="" style="endArrow=diamondThin;endFill=1;endSize=24;html=1;rounded=0;exitX=1;exitY=0.5;exitDx=0;exitDy=0;entryX=0.006;entryY=0.938;entryDx=0;entryDy=0;entryPerimeter=0;" parent="1" source="09kZFXPRxGzwBJFV6vJo-13" target="09kZFXPRxGzwBJFV6vJo-2" edge="1">
          <mxGeometry width="160" relative="1" as="geometry">
            <mxPoint x="330" y="430" as="sourcePoint" />
            <mxPoint x="490" y="430" as="targetPoint" />
            <Array as="points">
              <mxPoint x="270" y="196" />
            </Array>
          </mxGeometry>
        </mxCell>
        <mxCell id="09kZFXPRxGzwBJFV6vJo-17" value="ParkingLot" style="swimlane;fontStyle=1;align=center;verticalAlign=top;childLayout=stackLayout;horizontal=1;startSize=26;horizontalStack=0;resizeParent=1;resizeParentMax=0;resizeLast=0;collapsible=1;marginBottom=0;whiteSpace=wrap;html=1;" parent="1" vertex="1">
          <mxGeometry x="600" y="110" width="220" height="240" as="geometry" />
        </mxCell>
        <mxCell id="09kZFXPRxGzwBJFV6vJo-18" value="- numberPlate : std:string&lt;div&gt;- payment : Payment&lt;/div&gt;&lt;div&gt;- parkedTime: time&lt;/div&gt;" style="text;strokeColor=none;fillColor=none;align=left;verticalAlign=top;spacingLeft=4;spacingRight=4;overflow=hidden;rotatable=0;points=[[0,0.5],[1,0.5]];portConstraint=eastwest;whiteSpace=wrap;html=1;" parent="09kZFXPRxGzwBJFV6vJo-17" vertex="1">
          <mxGeometry y="26" width="220" height="64" as="geometry" />
        </mxCell>
        <mxCell id="09kZFXPRxGzwBJFV6vJo-19" value="" style="line;strokeWidth=1;fillColor=none;align=left;verticalAlign=middle;spacingTop=-1;spacingLeft=3;spacingRight=3;rotatable=0;labelPosition=right;points=[];portConstraint=eastwest;strokeColor=inherit;" parent="09kZFXPRxGzwBJFV6vJo-17" vertex="1">
          <mxGeometry y="90" width="220" height="28" as="geometry" />
        </mxCell>
        <mxCell id="09kZFXPRxGzwBJFV6vJo-20" value="+ ParkingLot(): map&lt;div&gt;+ Park(Vehicle vehicleType, floor int, row int) : bool&lt;div&gt;+ Leave(&lt;span style=&quot;background-color: initial;&quot;&gt;Vehicle vehicleType&lt;/span&gt;&lt;span style=&quot;background-color: initial;&quot;&gt;) : bool&lt;/span&gt;&lt;/div&gt;&lt;div&gt;+ AvailableSpots(): int&lt;/div&gt;&lt;/div&gt;&lt;div&gt;+ CalculateParkingHours(): int&lt;/div&gt;&lt;div&gt;+ Clear()&lt;/div&gt;" style="text;strokeColor=none;fillColor=none;align=left;verticalAlign=top;spacingLeft=4;spacingRight=4;overflow=hidden;rotatable=0;points=[[0,0.5],[1,0.5]];portConstraint=eastwest;whiteSpace=wrap;html=1;" parent="09kZFXPRxGzwBJFV6vJo-17" vertex="1">
          <mxGeometry y="118" width="220" height="122" as="geometry" />
        </mxCell>
        <mxCell id="09kZFXPRxGzwBJFV6vJo-21" value="Use" style="endArrow=open;endSize=12;dashed=1;html=1;rounded=0;" parent="1" edge="1">
          <mxGeometry width="160" relative="1" as="geometry">
            <mxPoint x="600" y="210" as="sourcePoint" />
            <mxPoint x="480" y="210" as="targetPoint" />
          </mxGeometry>
        </mxCell>
        <mxCell id="09kZFXPRxGzwBJFV6vJo-22" value="Car" style="swimlane;fontStyle=1;align=center;verticalAlign=top;childLayout=stackLayout;horizontal=1;startSize=26;horizontalStack=0;resizeParent=1;resizeParentMax=0;resizeLast=0;collapsible=1;marginBottom=0;whiteSpace=wrap;html=1;" parent="1" vertex="1">
          <mxGeometry x="459" y="418" width="160" height="86" as="geometry" />
        </mxCell>
        <mxCell id="09kZFXPRxGzwBJFV6vJo-23" value="+ Bike()" style="text;strokeColor=none;fillColor=none;align=left;verticalAlign=top;spacingLeft=4;spacingRight=4;overflow=hidden;rotatable=0;points=[[0,0.5],[1,0.5]];portConstraint=eastwest;whiteSpace=wrap;html=1;" parent="09kZFXPRxGzwBJFV6vJo-22" vertex="1">
          <mxGeometry y="26" width="160" height="26" as="geometry" />
        </mxCell>
        <mxCell id="09kZFXPRxGzwBJFV6vJo-24" value="" style="line;strokeWidth=1;fillColor=none;align=left;verticalAlign=middle;spacingTop=-1;spacingLeft=3;spacingRight=3;rotatable=0;labelPosition=right;points=[];portConstraint=eastwest;strokeColor=inherit;" parent="09kZFXPRxGzwBJFV6vJo-22" vertex="1">
          <mxGeometry y="52" width="160" height="8" as="geometry" />
        </mxCell>
        <mxCell id="09kZFXPRxGzwBJFV6vJo-25" value="+ GetType()" style="text;strokeColor=none;fillColor=none;align=left;verticalAlign=top;spacingLeft=4;spacingRight=4;overflow=hidden;rotatable=0;points=[[0,0.5],[1,0.5]];portConstraint=eastwest;whiteSpace=wrap;html=1;" parent="09kZFXPRxGzwBJFV6vJo-22" vertex="1">
          <mxGeometry y="60" width="160" height="26" as="geometry" />
        </mxCell>
        <mxCell id="09kZFXPRxGzwBJFV6vJo-26" value="Bike" style="swimlane;fontStyle=1;align=center;verticalAlign=top;childLayout=stackLayout;horizontal=1;startSize=26;horizontalStack=0;resizeParent=1;resizeParentMax=0;resizeLast=0;collapsible=1;marginBottom=0;whiteSpace=wrap;html=1;" parent="1" vertex="1">
          <mxGeometry x="239" y="418" width="160" height="86" as="geometry" />
        </mxCell>
        <mxCell id="09kZFXPRxGzwBJFV6vJo-27" value="+ Bike()" style="text;strokeColor=none;fillColor=none;align=left;verticalAlign=top;spacingLeft=4;spacingRight=4;overflow=hidden;rotatable=0;points=[[0,0.5],[1,0.5]];portConstraint=eastwest;whiteSpace=wrap;html=1;" parent="09kZFXPRxGzwBJFV6vJo-26" vertex="1">
          <mxGeometry y="26" width="160" height="26" as="geometry" />
        </mxCell>
        <mxCell id="09kZFXPRxGzwBJFV6vJo-28" value="" style="line;strokeWidth=1;fillColor=none;align=left;verticalAlign=middle;spacingTop=-1;spacingLeft=3;spacingRight=3;rotatable=0;labelPosition=right;points=[];portConstraint=eastwest;strokeColor=inherit;" parent="09kZFXPRxGzwBJFV6vJo-26" vertex="1">
          <mxGeometry y="52" width="160" height="8" as="geometry" />
        </mxCell>
        <mxCell id="09kZFXPRxGzwBJFV6vJo-29" value="+ GetType()" style="text;strokeColor=none;fillColor=none;align=left;verticalAlign=top;spacingLeft=4;spacingRight=4;overflow=hidden;rotatable=0;points=[[0,0.5],[1,0.5]];portConstraint=eastwest;whiteSpace=wrap;html=1;" parent="09kZFXPRxGzwBJFV6vJo-26" vertex="1">
          <mxGeometry y="60" width="160" height="26" as="geometry" />
        </mxCell>
        <mxCell id="09kZFXPRxGzwBJFV6vJo-30" value="Truck" style="swimlane;fontStyle=1;align=center;verticalAlign=top;childLayout=stackLayout;horizontal=1;startSize=26;horizontalStack=0;resizeParent=1;resizeParentMax=0;resizeLast=0;collapsible=1;marginBottom=0;whiteSpace=wrap;html=1;" parent="1" vertex="1">
          <mxGeometry x="664" y="418" width="160" height="86" as="geometry" />
        </mxCell>
        <mxCell id="09kZFXPRxGzwBJFV6vJo-31" value="+ Bike()" style="text;strokeColor=none;fillColor=none;align=left;verticalAlign=top;spacingLeft=4;spacingRight=4;overflow=hidden;rotatable=0;points=[[0,0.5],[1,0.5]];portConstraint=eastwest;whiteSpace=wrap;html=1;" parent="09kZFXPRxGzwBJFV6vJo-30" vertex="1">
          <mxGeometry y="26" width="160" height="26" as="geometry" />
        </mxCell>
        <mxCell id="09kZFXPRxGzwBJFV6vJo-32" value="" style="line;strokeWidth=1;fillColor=none;align=left;verticalAlign=middle;spacingTop=-1;spacingLeft=3;spacingRight=3;rotatable=0;labelPosition=right;points=[];portConstraint=eastwest;strokeColor=inherit;" parent="09kZFXPRxGzwBJFV6vJo-30" vertex="1">
          <mxGeometry y="52" width="160" height="8" as="geometry" />
        </mxCell>
        <mxCell id="09kZFXPRxGzwBJFV6vJo-33" value="+ GetType()" style="text;strokeColor=none;fillColor=none;align=left;verticalAlign=top;spacingLeft=4;spacingRight=4;overflow=hidden;rotatable=0;points=[[0,0.5],[1,0.5]];portConstraint=eastwest;whiteSpace=wrap;html=1;" parent="09kZFXPRxGzwBJFV6vJo-30" vertex="1">
          <mxGeometry y="60" width="160" height="26" as="geometry" />
        </mxCell>
        <mxCell id="09kZFXPRxGzwBJFV6vJo-43" value="Extends" style="endArrow=block;endSize=16;endFill=0;html=1;rounded=0;exitX=0.5;exitY=0;exitDx=0;exitDy=0;edgeStyle=orthogonalEdgeStyle;" parent="1" source="09kZFXPRxGzwBJFV6vJo-26" edge="1">
          <mxGeometry width="160" relative="1" as="geometry">
            <mxPoint x="330" y="190" as="sourcePoint" />
            <mxPoint x="390" y="310" as="targetPoint" />
          </mxGeometry>
        </mxCell>
        <mxCell id="09kZFXPRxGzwBJFV6vJo-44" value="Extends" style="endArrow=block;endSize=16;endFill=0;html=1;rounded=0;exitX=0.5;exitY=0;exitDx=0;exitDy=0;edgeStyle=orthogonalEdgeStyle;" parent="1" source="09kZFXPRxGzwBJFV6vJo-22" edge="1">
          <mxGeometry width="160" relative="1" as="geometry">
            <mxPoint x="330" y="190" as="sourcePoint" />
            <mxPoint x="390" y="310" as="targetPoint" />
          </mxGeometry>
        </mxCell>
        <mxCell id="09kZFXPRxGzwBJFV6vJo-45" value="Extends" style="endArrow=block;endSize=16;endFill=0;html=1;rounded=0;exitX=0.5;exitY=0;exitDx=0;exitDy=0;edgeStyle=orthogonalEdgeStyle;" parent="1" source="09kZFXPRxGzwBJFV6vJo-30" edge="1">
          <mxGeometry width="160" relative="1" as="geometry">
            <mxPoint x="330" y="190" as="sourcePoint" />
            <mxPoint x="390" y="310" as="targetPoint" />
          </mxGeometry>
        </mxCell>
        <mxCell id="09kZFXPRxGzwBJFV6vJo-46" value="Payment" style="swimlane;fontStyle=1;align=center;verticalAlign=top;childLayout=stackLayout;horizontal=1;startSize=26;horizontalStack=0;resizeParent=1;resizeParentMax=0;resizeLast=0;collapsible=1;marginBottom=0;whiteSpace=wrap;html=1;" parent="1" vertex="1">
          <mxGeometry x="30" y="430" width="160" height="60" as="geometry" />
        </mxCell>
        <mxCell id="09kZFXPRxGzwBJFV6vJo-48" value="" style="line;strokeWidth=1;fillColor=none;align=left;verticalAlign=middle;spacingTop=-1;spacingLeft=3;spacingRight=3;rotatable=0;labelPosition=right;points=[];portConstraint=eastwest;strokeColor=inherit;" parent="09kZFXPRxGzwBJFV6vJo-46" vertex="1">
          <mxGeometry y="26" width="160" height="8" as="geometry" />
        </mxCell>
        <mxCell id="09kZFXPRxGzwBJFV6vJo-49" value="+ CalculateCost : double" style="text;strokeColor=none;fillColor=none;align=left;verticalAlign=top;spacingLeft=4;spacingRight=4;overflow=hidden;rotatable=0;points=[[0,0.5],[1,0.5]];portConstraint=eastwest;whiteSpace=wrap;html=1;" parent="09kZFXPRxGzwBJFV6vJo-46" vertex="1">
          <mxGeometry y="34" width="160" height="26" as="geometry" />
        </mxCell>
        <mxCell id="09kZFXPRxGzwBJFV6vJo-51" value="" style="endArrow=diamondThin;endFill=1;endSize=24;html=1;rounded=0;exitX=0.5;exitY=0;exitDx=0;exitDy=0;entryX=0;entryY=0.5;entryDx=0;entryDy=0;" parent="1" source="09kZFXPRxGzwBJFV6vJo-46" target="09kZFXPRxGzwBJFV6vJo-4" edge="1">
          <mxGeometry width="160" relative="1" as="geometry">
            <mxPoint x="360" y="360" as="sourcePoint" />
            <mxPoint x="520" y="360" as="targetPoint" />
          </mxGeometry>
        </mxCell>
        <mxCell id="09kZFXPRxGzwBJFV6vJo-56" value="CarPayment" style="swimlane;fontStyle=1;align=center;verticalAlign=top;childLayout=stackLayout;horizontal=1;startSize=26;horizontalStack=0;resizeParent=1;resizeParentMax=0;resizeLast=0;collapsible=1;marginBottom=0;whiteSpace=wrap;html=1;" parent="1" vertex="1">
          <mxGeometry x="26" y="604" width="160" height="60" as="geometry" />
        </mxCell>
        <mxCell id="09kZFXPRxGzwBJFV6vJo-58" value="" style="line;strokeWidth=1;fillColor=none;align=left;verticalAlign=middle;spacingTop=-1;spacingLeft=3;spacingRight=3;rotatable=0;labelPosition=right;points=[];portConstraint=eastwest;strokeColor=inherit;" parent="09kZFXPRxGzwBJFV6vJo-56" vertex="1">
          <mxGeometry y="26" width="160" height="8" as="geometry" />
        </mxCell>
        <mxCell id="09kZFXPRxGzwBJFV6vJo-59" value="+ CarPayment():double" style="text;strokeColor=none;fillColor=none;align=left;verticalAlign=top;spacingLeft=4;spacingRight=4;overflow=hidden;rotatable=0;points=[[0,0.5],[1,0.5]];portConstraint=eastwest;whiteSpace=wrap;html=1;" parent="09kZFXPRxGzwBJFV6vJo-56" vertex="1">
          <mxGeometry y="34" width="160" height="26" as="geometry" />
        </mxCell>
        <mxCell id="09kZFXPRxGzwBJFV6vJo-64" value="BikePayment" style="swimlane;fontStyle=1;align=center;verticalAlign=top;childLayout=stackLayout;horizontal=1;startSize=26;horizontalStack=0;resizeParent=1;resizeParentMax=0;resizeLast=0;collapsible=1;marginBottom=0;whiteSpace=wrap;html=1;" parent="1" vertex="1">
          <mxGeometry x="225" y="604" width="160" height="60" as="geometry" />
        </mxCell>
        <mxCell id="09kZFXPRxGzwBJFV6vJo-65" value="" style="line;strokeWidth=1;fillColor=none;align=left;verticalAlign=middle;spacingTop=-1;spacingLeft=3;spacingRight=3;rotatable=0;labelPosition=right;points=[];portConstraint=eastwest;strokeColor=inherit;" parent="09kZFXPRxGzwBJFV6vJo-64" vertex="1">
          <mxGeometry y="26" width="160" height="8" as="geometry" />
        </mxCell>
        <mxCell id="09kZFXPRxGzwBJFV6vJo-66" value="+ BikePayment():double" style="text;strokeColor=none;fillColor=none;align=left;verticalAlign=top;spacingLeft=4;spacingRight=4;overflow=hidden;rotatable=0;points=[[0,0.5],[1,0.5]];portConstraint=eastwest;whiteSpace=wrap;html=1;" parent="09kZFXPRxGzwBJFV6vJo-64" vertex="1">
          <mxGeometry y="34" width="160" height="26" as="geometry" />
        </mxCell>
        <mxCell id="09kZFXPRxGzwBJFV6vJo-67" value="TruckPayment" style="swimlane;fontStyle=1;align=center;verticalAlign=top;childLayout=stackLayout;horizontal=1;startSize=26;horizontalStack=0;resizeParent=1;resizeParentMax=0;resizeLast=0;collapsible=1;marginBottom=0;whiteSpace=wrap;html=1;" parent="1" vertex="1">
          <mxGeometry x="426" y="604" width="160" height="60" as="geometry" />
        </mxCell>
        <mxCell id="09kZFXPRxGzwBJFV6vJo-68" value="" style="line;strokeWidth=1;fillColor=none;align=left;verticalAlign=middle;spacingTop=-1;spacingLeft=3;spacingRight=3;rotatable=0;labelPosition=right;points=[];portConstraint=eastwest;strokeColor=inherit;" parent="09kZFXPRxGzwBJFV6vJo-67" vertex="1">
          <mxGeometry y="26" width="160" height="8" as="geometry" />
        </mxCell>
        <mxCell id="09kZFXPRxGzwBJFV6vJo-69" value="+ TruckPayment():double" style="text;strokeColor=none;fillColor=none;align=left;verticalAlign=top;spacingLeft=4;spacingRight=4;overflow=hidden;rotatable=0;points=[[0,0.5],[1,0.5]];portConstraint=eastwest;whiteSpace=wrap;html=1;" parent="09kZFXPRxGzwBJFV6vJo-67" vertex="1">
          <mxGeometry y="34" width="160" height="26" as="geometry" />
        </mxCell>
        <mxCell id="09kZFXPRxGzwBJFV6vJo-71" value="Extends" style="endArrow=block;endSize=16;endFill=0;html=1;rounded=0;exitX=0.5;exitY=0;exitDx=0;exitDy=0;entryX=0.479;entryY=1.124;entryDx=0;entryDy=0;entryPerimeter=0;edgeStyle=orthogonalEdgeStyle;" parent="1" source="09kZFXPRxGzwBJFV6vJo-67" target="09kZFXPRxGzwBJFV6vJo-49" edge="1">
          <mxGeometry width="160" relative="1" as="geometry">
            <mxPoint x="360" y="550" as="sourcePoint" />
            <mxPoint x="520" y="550" as="targetPoint" />
            <Array as="points">
              <mxPoint x="506" y="550" />
              <mxPoint x="107" y="550" />
            </Array>
          </mxGeometry>
        </mxCell>
        <mxCell id="09kZFXPRxGzwBJFV6vJo-72" value="Extends" style="endArrow=block;endSize=16;endFill=0;html=1;rounded=0;exitX=0.5;exitY=0;exitDx=0;exitDy=0;edgeStyle=orthogonalEdgeStyle;entryX=0.493;entryY=1.081;entryDx=0;entryDy=0;entryPerimeter=0;" parent="1" source="09kZFXPRxGzwBJFV6vJo-64" target="09kZFXPRxGzwBJFV6vJo-49" edge="1">
          <mxGeometry width="160" relative="1" as="geometry">
            <mxPoint x="360" y="550" as="sourcePoint" />
            <mxPoint x="110" y="494" as="targetPoint" />
            <Array as="points">
              <mxPoint x="305" y="550" />
              <mxPoint x="109" y="550" />
            </Array>
          </mxGeometry>
        </mxCell>
        <mxCell id="09kZFXPRxGzwBJFV6vJo-73" value="Extends" style="endArrow=block;endSize=16;endFill=0;html=1;rounded=0;edgeStyle=orthogonalEdgeStyle;" parent="1" edge="1">
          <mxGeometry width="160" relative="1" as="geometry">
            <mxPoint x="110" y="600" as="sourcePoint" />
            <mxPoint x="110" y="490" as="targetPoint" />
          </mxGeometry>
        </mxCell>
        <mxCell id="JaB5eUvDOl0XQFZ9XKfG-1" value="&amp;lt;&amp;lt;primitive&amp;gt;&amp;gt; Main" style="swimlane;fontStyle=1;align=center;verticalAlign=top;childLayout=stackLayout;horizontal=1;startSize=26;horizontalStack=0;resizeParent=1;resizeParentMax=0;resizeLast=0;collapsible=1;marginBottom=0;whiteSpace=wrap;html=1;" vertex="1" parent="1">
          <mxGeometry x="79" y="750" width="160" height="60" as="geometry" />
        </mxCell>
        <mxCell id="JaB5eUvDOl0XQFZ9XKfG-3" value="" style="line;strokeWidth=1;fillColor=none;align=left;verticalAlign=middle;spacingTop=-1;spacingLeft=3;spacingRight=3;rotatable=0;labelPosition=right;points=[];portConstraint=eastwest;strokeColor=inherit;" vertex="1" parent="JaB5eUvDOl0XQFZ9XKfG-1">
          <mxGeometry y="26" width="160" height="8" as="geometry" />
        </mxCell>
        <mxCell id="JaB5eUvDOl0XQFZ9XKfG-4" value="+ Main Functionality" style="text;strokeColor=none;fillColor=none;align=left;verticalAlign=top;spacingLeft=4;spacingRight=4;overflow=hidden;rotatable=0;points=[[0,0.5],[1,0.5]];portConstraint=eastwest;whiteSpace=wrap;html=1;" vertex="1" parent="JaB5eUvDOl0XQFZ9XKfG-1">
          <mxGeometry y="34" width="160" height="26" as="geometry" />
        </mxCell>
      </root>
    </mxGraphModel>
  </diagram>
</mxfile>
